PathFileType	4	(X/Y/Z)	KinectSkeleton.trc																																																	
DataRate	CameraRate	NumFrames	NumMarkers	Units	OrigDataRate	OrigDataStartFrame	OrigNumFrames																																													
60	60	11	17	mm	60	310	300																																													
Frame#	Time	Neck			ShoulderMid			R.Shoulder			L.Shoulder			R.Elbow			L.Elbow			R.Wrist			L.Wrist			HipCenter			R.Hip			L.Hip			R.Knee			L.Knee			R.Ankle			L.Ankle			R.Foot			L.Foot		
		X1	Y1	Z1	X2	Y2	Z2	X3	Y3	Z3	X4	Y4	Z4	X5	Y5	Z5	X6	Y6	Z6	X7	Y7	Z7	X8	Y8	Z8	X9	Y9	Z9	X10	Y10	Z10	X11	Y11	Z11	X12	Y12	Z12	X13	Y13	Z13	X14	Y14	Z14	X15	Y15	Z15	X16	Y16	Z16	X17	Y17	Z17
																																																				
310	15.967	-999.112	289.209	188.065	-999.112	289.209	188.065	-925.147	247.217	320.6	-982.95	241.35	29.257	-764.336	48.604	327.272	-1022.802	21.408	-84.693	-821.591	208.236	197.997	-925.256	179.09	15.125	-753.482	-119.602	136.831	-746.512	-127.93	210.688	-761.212	-110.366	54.927	-402.832	-244.377	222.871	-422.692	-219.011	-20.633	-369.216	-588.362	161.578	-343.553	-557.235	-19.162	-233.176	-663.551	143.451	-189.723	-629.056	-29.528
311	16.016	-998.018	287.013	190.77	-998.018	287.013	190.77	-922.402	246.1	320.251	-987.455	241.789	32.911	-761.558	51.048	317.84	-1020.786	22.023	-77.372	-822.247	211.065	194.596	-929.198	182.132	19.32	-758.83	-118.803	135.31	-750.633	-126.78	208.249	-767.92	-109.957	54.425	-408.687	-236.105	216.095	-432.609	-212.127	-25.239	-371.823	-575.901	155.293	-354.926	-546.771	-25.152	-237.188	-649.694	135.774	-203.58	-619.001	-38.328
312	16.075	-1003.275	286.815	192.608	-1003.275	286.815	192.608	-921.976	246.67	319.579	-991.656	242.453	34.412	-758.609	52.714	319.593	-1023.767	22.674	-77.872	-822.527	210.811	194.43	-933.186	182.919	20.875	-760.124	-117.985	134.805	-750.151	-125.286	207.818	-771.184	-109.887	53.836	-406.431	-232.799	211.766	-435.851	-209.072	-33.976	-369	-573.444	150.095	-356.661	-544.419	-31.928	-233.394	-645.014	125.886	-204.172	-614.632	-48.798
313	16.12	-1004.405	286.771	193.725	-1004.405	286.771	193.725	-920.897	244.708	319.107	-993.139	243.135	34.967	-756.558	50.935	315.121	-1023.13	22.594	-77.54	-821.755	212.43	194.299	-933.927	183.833	21.746	-762.108	-118.701	133.036	-751.577	-126.034	206.121	-773.786	-110.569	51.987	-406.312	-231.1	207.799	-438.354	-206.89	-41.491	-366.475	-571.744	143.646	-359.984	-543.158	-40.296	-229.866	-641.42	117.582	-207.15	-612.799	-59.681
314	16.166	-1005.177	289.208	194.22	-1005.177	289.208	194.22	-920.906	246.155	319.508	-993.74	245.611	34.898	-756.771	51.165	312.74	-1022.975	24.121	-77.809	-822.848	214.481	193.6	-933.908	186.084	21.91	-762.876	-117.972	132.922	-752.289	-125.344	206.249	-774.616	-109.797	51.604	-405.857	-230.769	206.342	-438.808	-206.368	-44.93	-364.849	-572.275	141.113	-360.452	-543.836	-44.256	-227.423	-641.2	114.223	-207.134	-613.424	-64.946
315	16.21	-1004.376	289.788	193.495	-1004.376	289.788	193.495	-921.086	247.193	319.523	-991.899	245.747	34.376	-757.643	51.531	315.561	-1020.056	24.034	-78.193	-822.196	214.248	194.76	-931.335	185.899	22.013	-762.755	-117.813	133.051	-752.211	-125.184	206.388	-774.448	-109.64	51.723	-405.707	-230.426	206.417	-438.76	-206.261	-45.239	-364.945	-572.042	141.527	-359.895	-543.626	-44.48	-227.554	-641.119	114.809	-206.512	-613.072	-65.224
316	16.26	-1005.33	290.962	191.293	-1005.33	290.962	191.293	-922.173	246.541	316.509	-987.791	245.703	33.45	-759.106	51.271	317.574	-1017.054	24.299	-78.199	-821.603	214.39	197.071	-928.043	185.166	22.372	-768.185	-117.074	132.237	-757.41	-124.376	205.379	-780.134	-108.977	51.126	-412.246	-231.211	207.279	-447.084	-209.429	-47.988	-371.867	-572.292	143.564	-364.905	-545.196	-45.464	-233.964	-639.56	116.908	-210.475	-611.13	-66.794
317	16.306	-1005.532	291.809	188.845	-1005.532	291.809	188.845	-923.234	245.7	314.003	-984.662	245.768	31.428	-759.599	50.891	319.073	-1011.709	24.719	-81.607	-820.44	214.929	198.883	-924.716	184.819	22.011	-771.914	-117.736	129.024	-761.878	-125.834	202.205	-783.044	-108.755	47.87	-417.675	-235.908	207.196	-450.47	-211.599	-50.7	-378.587	-576.723	140.856	-369.614	-547.778	-49.584	-240.215	-643.631	115.537	-214.527	-612.592	-69.871
318	16.351	-1005.39	291.913	187.316	-1005.39	291.913	187.316	-924.884	245.068	312.93	-982.591	245.189	30.618	-762.003	50.426	314.869	-1009.904	24.432	-81.499	-821.096	216.599	197.743	-922.851	183.995	21.804	-771.525	-115.897	128.769	-762.425	-124.412	201.83	-781.617	-106.455	47.747	-420.539	-238.478	208.691	-450.819	-212.777	-49.682	-382.148	-578.247	141.322	-371.026	-548.296	-48.976	-244.361	-645.904	117.304	-216.54	-613.884	-67.656
319	16.397	-1005.707	292.824	184.537	-1005.707	292.824	184.537	-928.58	245.132	311.986	-979.451	246.433	28.027	-764.308	51.191	315.347	-1008.708	24.479	-82.031	-821.085	218.058	197.501	-920.741	183.859	21.404	-774.348	-116.852	127.833	-766.846	-126.144	201.091	-782.668	-106.548	46.592	-424.172	-238.949	214.384	-449.969	-212.562	-46.575	-387.749	-579.013	144.791	-372.369	-549.116	-46.742	-250.155	-648.412	123.296	-218.044	-616.439	-62.62
320	16.445	-1005.546	290.936	181.14	-1005.546	290.936	181.14	-929.826	244.419	308.464	-976.633	243.716	26.433	-767.333	51.24	316.034	-1003.068	24.339	-85.852	-820.241	217.194	197.55	-918.034	181.52	20.633	-776.399	-116.976	128.842	-769.857	-126.125	201.726	-783.654	-106.83	48.016	-430.758	-241.849	218.258	-453.22	-214.118	-42.72	-393.762	-579.863	150.242	-375.997	-548.472	-41.204	-256.79	-648.801	130.606	-222.291	-614.94	-54.984
